<mxfile host="app.diagrams.net" agent="Mozilla/5.0 (X11; Ubuntu; Linux x86_64; rv:143.0) Gecko/20100101 Firefox/143.0" version="28.2.7">
  <diagram name="Page-1" id="_JsDTvI4LPfl8OlTr31s">
    <mxGraphModel dx="5813" dy="2687" grid="1" gridSize="10" guides="1" tooltips="1" connect="1" arrows="1" fold="1" page="1" pageScale="1" pageWidth="850" pageHeight="1100" math="0" shadow="0">
      <root>
        <mxCell id="0" />
        <mxCell id="1" parent="0" />
        <mxCell id="R2EAvxU0J0-hC88VYYGd-3" style="edgeStyle=orthogonalEdgeStyle;rounded=0;orthogonalLoop=1;jettySize=auto;html=1;" edge="1" parent="1" source="R2EAvxU0J0-hC88VYYGd-2">
          <mxGeometry relative="1" as="geometry">
            <mxPoint x="290" y="200" as="targetPoint" />
          </mxGeometry>
        </mxCell>
        <mxCell id="R2EAvxU0J0-hC88VYYGd-2" value="No app do banco, ele vai linkar o número de telefone e aceitar os termos de serviço." style="rounded=0;whiteSpace=wrap;html=1;" vertex="1" parent="1">
          <mxGeometry x="60" y="170" width="130" height="60" as="geometry" />
        </mxCell>
        <mxCell id="R2EAvxU0J0-hC88VYYGd-7" style="edgeStyle=orthogonalEdgeStyle;rounded=0;orthogonalLoop=1;jettySize=auto;html=1;" edge="1" parent="1" source="R2EAvxU0J0-hC88VYYGd-6">
          <mxGeometry relative="1" as="geometry">
            <mxPoint x="480" y="200" as="targetPoint" />
          </mxGeometry>
        </mxCell>
        <mxCell id="R2EAvxU0J0-hC88VYYGd-6" value="O banco vai mandar uma mensagem de verificação/inicial para o usuário" style="rounded=0;whiteSpace=wrap;html=1;" vertex="1" parent="1">
          <mxGeometry x="290" y="170" width="120" height="60" as="geometry" />
        </mxCell>
        <mxCell id="R2EAvxU0J0-hC88VYYGd-11" style="edgeStyle=orthogonalEdgeStyle;rounded=0;orthogonalLoop=1;jettySize=auto;html=1;entryX=0.054;entryY=0.499;entryDx=0;entryDy=0;entryPerimeter=0;" edge="1" parent="1" source="R2EAvxU0J0-hC88VYYGd-9" target="R2EAvxU0J0-hC88VYYGd-18">
          <mxGeometry relative="1" as="geometry">
            <mxPoint x="720" y="200" as="targetPoint" />
          </mxGeometry>
        </mxCell>
        <mxCell id="R2EAvxU0J0-hC88VYYGd-9" value="Mensagem inicial (primeira interação do bot com o usuário):&lt;br&gt;apresentação, breve explicação do que o bot faz...&lt;div&gt;Digite &quot;ajuda&quot;...&lt;/div&gt;" style="rounded=0;whiteSpace=wrap;html=1;" vertex="1" parent="1">
          <mxGeometry x="480" y="161.25" width="180" height="77.5" as="geometry" />
        </mxCell>
        <mxCell id="R2EAvxU0J0-hC88VYYGd-13" value="À medida que o usuario vai pedindo serviços que precisam de config, ele pede permissão.&lt;br&gt;&lt;br&gt;&quot;lembre-se que vc ainda nao fez a config completa!&quot;" style="rounded=0;whiteSpace=wrap;html=1;" vertex="1" parent="1">
          <mxGeometry x="950" y="115" width="150" height="170" as="geometry" />
        </mxCell>
        <mxCell id="R2EAvxU0J0-hC88VYYGd-17" style="edgeStyle=orthogonalEdgeStyle;rounded=0;orthogonalLoop=1;jettySize=auto;html=1;entryX=0.5;entryY=0;entryDx=0;entryDy=0;" edge="1" parent="1" source="R2EAvxU0J0-hC88VYYGd-15" target="R2EAvxU0J0-hC88VYYGd-16">
          <mxGeometry relative="1" as="geometry" />
        </mxCell>
        <mxCell id="R2EAvxU0J0-hC88VYYGd-15" value="Enquetezonas desses serviços (4 etapas de configuração)&lt;div&gt;- serviços básicos (BTG já oferece)&lt;/div&gt;- análise de consumo&lt;br&gt;- análise de investimentos&lt;br&gt;- análise de objetivos/metas" style="rounded=1;whiteSpace=wrap;html=1;" vertex="1" parent="1">
          <mxGeometry x="675" y="300" width="210" height="120" as="geometry" />
        </mxCell>
        <mxCell id="R2EAvxU0J0-hC88VYYGd-25" style="edgeStyle=orthogonalEdgeStyle;rounded=0;orthogonalLoop=1;jettySize=auto;html=1;" edge="1" parent="1" source="R2EAvxU0J0-hC88VYYGd-16" target="R2EAvxU0J0-hC88VYYGd-23">
          <mxGeometry relative="1" as="geometry" />
        </mxCell>
        <mxCell id="R2EAvxU0J0-hC88VYYGd-16" value="Pronto! Você já pode usar o bot!" style="rounded=0;whiteSpace=wrap;html=1;" vertex="1" parent="1">
          <mxGeometry x="720" y="460" width="120" height="60" as="geometry" />
        </mxCell>
        <mxCell id="R2EAvxU0J0-hC88VYYGd-19" style="edgeStyle=orthogonalEdgeStyle;rounded=0;orthogonalLoop=1;jettySize=auto;html=1;exitX=0.5;exitY=1;exitDx=0;exitDy=0;entryX=0.5;entryY=0;entryDx=0;entryDy=0;" edge="1" parent="1" source="R2EAvxU0J0-hC88VYYGd-18" target="R2EAvxU0J0-hC88VYYGd-15">
          <mxGeometry relative="1" as="geometry" />
        </mxCell>
        <mxCell id="R2EAvxU0J0-hC88VYYGd-20" value="SIM" style="edgeLabel;html=1;align=center;verticalAlign=middle;resizable=0;points=[];" vertex="1" connectable="0" parent="R2EAvxU0J0-hC88VYYGd-19">
          <mxGeometry x="-0.3556" relative="1" as="geometry">
            <mxPoint as="offset" />
          </mxGeometry>
        </mxCell>
        <mxCell id="R2EAvxU0J0-hC88VYYGd-21" style="edgeStyle=orthogonalEdgeStyle;rounded=0;orthogonalLoop=1;jettySize=auto;html=1;entryX=0;entryY=0.5;entryDx=0;entryDy=0;" edge="1" parent="1" source="R2EAvxU0J0-hC88VYYGd-18" target="R2EAvxU0J0-hC88VYYGd-13">
          <mxGeometry relative="1" as="geometry">
            <mxPoint x="920.0000000000002" y="200" as="targetPoint" />
          </mxGeometry>
        </mxCell>
        <mxCell id="R2EAvxU0J0-hC88VYYGd-22" value="NÃO" style="edgeLabel;html=1;align=center;verticalAlign=middle;resizable=0;points=[];" vertex="1" connectable="0" parent="R2EAvxU0J0-hC88VYYGd-21">
          <mxGeometry x="0.0357" y="1" relative="1" as="geometry">
            <mxPoint as="offset" />
          </mxGeometry>
        </mxCell>
        <mxCell id="R2EAvxU0J0-hC88VYYGd-18" value="Deseja fazer a config agora?" style="rhombus;whiteSpace=wrap;html=1;" vertex="1" parent="1">
          <mxGeometry x="720" y="145" width="120" height="110" as="geometry" />
        </mxCell>
        <mxCell id="R2EAvxU0J0-hC88VYYGd-27" style="edgeStyle=orthogonalEdgeStyle;rounded=0;orthogonalLoop=1;jettySize=auto;html=1;entryX=0;entryY=0.5;entryDx=0;entryDy=0;" edge="1" parent="1" source="R2EAvxU0J0-hC88VYYGd-23" target="R2EAvxU0J0-hC88VYYGd-26">
          <mxGeometry relative="1" as="geometry" />
        </mxCell>
        <mxCell id="R2EAvxU0J0-hC88VYYGd-23" value="USO GERAL" style="whiteSpace=wrap;html=1;aspect=fixed;" vertex="1" parent="1">
          <mxGeometry x="985" y="450" width="80" height="80" as="geometry" />
        </mxCell>
        <mxCell id="R2EAvxU0J0-hC88VYYGd-24" style="edgeStyle=orthogonalEdgeStyle;rounded=0;orthogonalLoop=1;jettySize=auto;html=1;entryX=0.5;entryY=0;entryDx=0;entryDy=0;" edge="1" parent="1" source="R2EAvxU0J0-hC88VYYGd-13" target="R2EAvxU0J0-hC88VYYGd-23">
          <mxGeometry relative="1" as="geometry" />
        </mxCell>
        <mxCell id="R2EAvxU0J0-hC88VYYGd-31" style="edgeStyle=orthogonalEdgeStyle;rounded=0;orthogonalLoop=1;jettySize=auto;html=1;entryX=0.55;entryY=0.95;entryDx=0;entryDy=0;entryPerimeter=0;" edge="1" parent="1" source="R2EAvxU0J0-hC88VYYGd-26" target="R2EAvxU0J0-hC88VYYGd-30">
          <mxGeometry relative="1" as="geometry">
            <mxPoint x="1380" y="490" as="targetPoint" />
            <Array as="points">
              <mxPoint x="1376" y="490" />
            </Array>
          </mxGeometry>
        </mxCell>
        <mxCell id="R2EAvxU0J0-hC88VYYGd-36" style="edgeStyle=orthogonalEdgeStyle;rounded=0;orthogonalLoop=1;jettySize=auto;html=1;entryX=0.5;entryY=0;entryDx=0;entryDy=0;" edge="1" parent="1" source="R2EAvxU0J0-hC88VYYGd-26" target="R2EAvxU0J0-hC88VYYGd-32">
          <mxGeometry relative="1" as="geometry" />
        </mxCell>
        <mxCell id="R2EAvxU0J0-hC88VYYGd-26" value="A iniciativa das ferramentas passa a ser da pessoa, sempre que ela iniciar uma conversa" style="rounded=0;whiteSpace=wrap;html=1;" vertex="1" parent="1">
          <mxGeometry x="1180" y="440" width="120" height="100" as="geometry" />
        </mxCell>
        <mxCell id="R2EAvxU0J0-hC88VYYGd-28" value="&lt;h1 style=&quot;margin-top: 0px;&quot;&gt;Sobre comandos&lt;/h1&gt;&lt;p&gt;A execução de funções pelo bot se dará majoritariamente pela conversa com o usuário, com algumas palavras-chave simples apenas para guiá-lo.&lt;br&gt;&lt;br&gt;NO TELEGRAM: por o comando e a palavra-chave&lt;/p&gt;&lt;p&gt;NO WHATSAPP: apenas a palavra-chave&lt;br&gt;&lt;br&gt;&quot;ajuda&quot;, &quot;config&quot;&lt;/p&gt;" style="text;html=1;whiteSpace=wrap;overflow=hidden;rounded=0;" vertex="1" parent="1">
          <mxGeometry x="1210" y="95" width="280" height="210" as="geometry" />
        </mxCell>
        <mxCell id="R2EAvxU0J0-hC88VYYGd-30" value="Se der 1 mês de inatividade, ele manda UMA mensagem cobrando" style="ellipse;shape=cloud;whiteSpace=wrap;html=1;verticalAlign=middle;fontSize=10;" vertex="1" parent="1">
          <mxGeometry x="1310" y="360" width="120" height="80" as="geometry" />
        </mxCell>
        <mxCell id="R2EAvxU0J0-hC88VYYGd-37" style="edgeStyle=orthogonalEdgeStyle;rounded=0;orthogonalLoop=1;jettySize=auto;html=1;exitX=0.5;exitY=1;exitDx=0;exitDy=0;entryX=0.5;entryY=0;entryDx=0;entryDy=0;" edge="1" parent="1" source="R2EAvxU0J0-hC88VYYGd-32" target="R2EAvxU0J0-hC88VYYGd-33">
          <mxGeometry relative="1" as="geometry" />
        </mxCell>
        <mxCell id="R2EAvxU0J0-hC88VYYGd-40" style="edgeStyle=orthogonalEdgeStyle;rounded=0;orthogonalLoop=1;jettySize=auto;html=1;" edge="1" parent="1" source="R2EAvxU0J0-hC88VYYGd-32">
          <mxGeometry relative="1" as="geometry">
            <mxPoint x="1370" y="630" as="targetPoint" />
          </mxGeometry>
        </mxCell>
        <mxCell id="R2EAvxU0J0-hC88VYYGd-32" value="SERVIÇOS BÁSICOS" style="rounded=1;whiteSpace=wrap;html=1;" vertex="1" parent="1">
          <mxGeometry x="1180" y="600" width="120" height="60" as="geometry" />
        </mxCell>
        <mxCell id="R2EAvxU0J0-hC88VYYGd-38" style="edgeStyle=orthogonalEdgeStyle;rounded=0;orthogonalLoop=1;jettySize=auto;html=1;exitX=0.5;exitY=1;exitDx=0;exitDy=0;entryX=0.5;entryY=0;entryDx=0;entryDy=0;" edge="1" parent="1" source="R2EAvxU0J0-hC88VYYGd-33" target="R2EAvxU0J0-hC88VYYGd-34">
          <mxGeometry relative="1" as="geometry" />
        </mxCell>
        <mxCell id="R2EAvxU0J0-hC88VYYGd-49" style="edgeStyle=orthogonalEdgeStyle;rounded=0;orthogonalLoop=1;jettySize=auto;html=1;exitX=1;exitY=0.5;exitDx=0;exitDy=0;" edge="1" parent="1" source="R2EAvxU0J0-hC88VYYGd-33">
          <mxGeometry relative="1" as="geometry">
            <mxPoint x="1370" y="819.939393939394" as="targetPoint" />
            <Array as="points">
              <mxPoint x="1360" y="820" />
              <mxPoint x="1360" y="820" />
            </Array>
          </mxGeometry>
        </mxCell>
        <mxCell id="R2EAvxU0J0-hC88VYYGd-70" style="edgeStyle=orthogonalEdgeStyle;rounded=0;orthogonalLoop=1;jettySize=auto;html=1;entryX=0;entryY=0.5;entryDx=0;entryDy=0;" edge="1" parent="1" source="R2EAvxU0J0-hC88VYYGd-33" target="R2EAvxU0J0-hC88VYYGd-68">
          <mxGeometry relative="1" as="geometry" />
        </mxCell>
        <mxCell id="R2EAvxU0J0-hC88VYYGd-33" value="ANÁLISE DE CONSUMO" style="rounded=1;whiteSpace=wrap;html=1;" vertex="1" parent="1">
          <mxGeometry x="1180" y="790" width="120" height="60" as="geometry" />
        </mxCell>
        <mxCell id="R2EAvxU0J0-hC88VYYGd-39" style="edgeStyle=orthogonalEdgeStyle;rounded=0;orthogonalLoop=1;jettySize=auto;html=1;" edge="1" parent="1" source="R2EAvxU0J0-hC88VYYGd-34" target="R2EAvxU0J0-hC88VYYGd-35">
          <mxGeometry relative="1" as="geometry" />
        </mxCell>
        <mxCell id="R2EAvxU0J0-hC88VYYGd-87" style="edgeStyle=orthogonalEdgeStyle;rounded=0;orthogonalLoop=1;jettySize=auto;html=1;entryX=0;entryY=0.5;entryDx=0;entryDy=0;" edge="1" parent="1" source="R2EAvxU0J0-hC88VYYGd-34" target="R2EAvxU0J0-hC88VYYGd-86">
          <mxGeometry relative="1" as="geometry" />
        </mxCell>
        <mxCell id="R2EAvxU0J0-hC88VYYGd-113" style="edgeStyle=orthogonalEdgeStyle;rounded=0;orthogonalLoop=1;jettySize=auto;html=1;entryX=0;entryY=0.5;entryDx=0;entryDy=0;" edge="1" parent="1" source="R2EAvxU0J0-hC88VYYGd-34" target="R2EAvxU0J0-hC88VYYGd-114">
          <mxGeometry relative="1" as="geometry">
            <mxPoint x="1340" y="1670" as="targetPoint" />
          </mxGeometry>
        </mxCell>
        <mxCell id="R2EAvxU0J0-hC88VYYGd-122" style="edgeStyle=orthogonalEdgeStyle;rounded=0;orthogonalLoop=1;jettySize=auto;html=1;" edge="1" parent="1" source="R2EAvxU0J0-hC88VYYGd-34" target="R2EAvxU0J0-hC88VYYGd-121">
          <mxGeometry relative="1" as="geometry">
            <Array as="points">
              <mxPoint x="1320" y="1340" />
              <mxPoint x="1320" y="1780" />
            </Array>
          </mxGeometry>
        </mxCell>
        <mxCell id="R2EAvxU0J0-hC88VYYGd-127" style="edgeStyle=orthogonalEdgeStyle;rounded=0;orthogonalLoop=1;jettySize=auto;html=1;" edge="1" parent="1" source="R2EAvxU0J0-hC88VYYGd-34" target="R2EAvxU0J0-hC88VYYGd-126">
          <mxGeometry relative="1" as="geometry">
            <Array as="points">
              <mxPoint x="1300" y="1900" />
            </Array>
          </mxGeometry>
        </mxCell>
        <mxCell id="R2EAvxU0J0-hC88VYYGd-34" value="ANÁLISE DE INVESTIMENTOS" style="rounded=1;whiteSpace=wrap;html=1;" vertex="1" parent="1">
          <mxGeometry x="1180" y="1310" width="120" height="60" as="geometry" />
        </mxCell>
        <mxCell id="R2EAvxU0J0-hC88VYYGd-129" style="edgeStyle=orthogonalEdgeStyle;rounded=0;orthogonalLoop=1;jettySize=auto;html=1;" edge="1" parent="1" source="R2EAvxU0J0-hC88VYYGd-35" target="R2EAvxU0J0-hC88VYYGd-128">
          <mxGeometry relative="1" as="geometry" />
        </mxCell>
        <mxCell id="R2EAvxU0J0-hC88VYYGd-157" style="edgeStyle=orthogonalEdgeStyle;rounded=0;orthogonalLoop=1;jettySize=auto;html=1;" edge="1" parent="1" source="R2EAvxU0J0-hC88VYYGd-35" target="R2EAvxU0J0-hC88VYYGd-154">
          <mxGeometry relative="1" as="geometry">
            <Array as="points">
              <mxPoint x="1240" y="2290" />
              <mxPoint x="2560" y="2290" />
            </Array>
          </mxGeometry>
        </mxCell>
        <mxCell id="R2EAvxU0J0-hC88VYYGd-35" value="ANÁLISE DE METAS" style="rounded=1;whiteSpace=wrap;html=1;" vertex="1" parent="1">
          <mxGeometry x="1180" y="2040" width="120" height="60" as="geometry" />
        </mxCell>
        <mxCell id="R2EAvxU0J0-hC88VYYGd-42" style="edgeStyle=orthogonalEdgeStyle;rounded=0;orthogonalLoop=1;jettySize=auto;html=1;" edge="1" parent="1" source="R2EAvxU0J0-hC88VYYGd-41" target="R2EAvxU0J0-hC88VYYGd-43">
          <mxGeometry relative="1" as="geometry">
            <mxPoint x="1530" y="630" as="targetPoint" />
          </mxGeometry>
        </mxCell>
        <mxCell id="R2EAvxU0J0-hC88VYYGd-41" value="Serviços já presentes no bot da BTG" style="rounded=0;whiteSpace=wrap;html=1;" vertex="1" parent="1">
          <mxGeometry x="1370" y="600" width="120" height="60" as="geometry" />
        </mxCell>
        <mxCell id="R2EAvxU0J0-hC88VYYGd-46" style="edgeStyle=orthogonalEdgeStyle;rounded=0;orthogonalLoop=1;jettySize=auto;html=1;entryX=0;entryY=0.5;entryDx=0;entryDy=0;" edge="1" parent="1" source="R2EAvxU0J0-hC88VYYGd-43" target="R2EAvxU0J0-hC88VYYGd-45">
          <mxGeometry relative="1" as="geometry" />
        </mxCell>
        <mxCell id="R2EAvxU0J0-hC88VYYGd-43" value="Caso a pessoa queira acessar um serviço do banco (ex.: aumentar limite) que não esteja presente por default no serviço, ele orientará a permitir isso pelo aplicativo do banco - enviar um link/tutorial de como aceitar.&lt;br&gt;[Mensagem padrão]" style="rounded=0;whiteSpace=wrap;html=1;" vertex="1" parent="1">
          <mxGeometry x="1530" y="565" width="240" height="130" as="geometry" />
        </mxCell>
        <mxCell id="R2EAvxU0J0-hC88VYYGd-45" value="&lt;div&gt;EXEMPLO:&lt;/div&gt;&lt;div&gt;Conta jovem: exemplos de gerenciamento da conta do jovem pelo responsável&lt;/div&gt;" style="rounded=0;whiteSpace=wrap;html=1;" vertex="1" parent="1">
          <mxGeometry x="1800" y="585" width="180" height="90" as="geometry" />
        </mxCell>
        <mxCell id="R2EAvxU0J0-hC88VYYGd-53" style="edgeStyle=orthogonalEdgeStyle;rounded=0;orthogonalLoop=1;jettySize=auto;html=1;entryX=0.017;entryY=0.462;entryDx=0;entryDy=0;entryPerimeter=0;" edge="1" parent="1" source="R2EAvxU0J0-hC88VYYGd-50" target="R2EAvxU0J0-hC88VYYGd-54">
          <mxGeometry relative="1" as="geometry">
            <mxPoint x="1430" y="920" as="targetPoint" />
          </mxGeometry>
        </mxCell>
        <mxCell id="R2EAvxU0J0-hC88VYYGd-50" value="Identificação de padrões: automatizar pagamentos: ATIVO POR DEFAULT" style="rounded=0;whiteSpace=wrap;html=1;" vertex="1" parent="1">
          <mxGeometry x="1370" y="790" width="120" height="60" as="geometry" />
        </mxCell>
        <mxCell id="R2EAvxU0J0-hC88VYYGd-64" style="edgeStyle=orthogonalEdgeStyle;rounded=0;orthogonalLoop=1;jettySize=auto;html=1;" edge="1" parent="1" source="R2EAvxU0J0-hC88VYYGd-54" target="R2EAvxU0J0-hC88VYYGd-65">
          <mxGeometry relative="1" as="geometry">
            <mxPoint x="1820" y="825.9999999999998" as="targetPoint" />
          </mxGeometry>
        </mxCell>
        <mxCell id="R2EAvxU0J0-hC88VYYGd-54" value="Quando o bot identificar um pagamento recorrente: pagamentos em certos períodos de tempo para a mesma conta e de valores semelhantes; ele pergunta se deseja configurar.&lt;br&gt;&lt;div&gt;&lt;br&gt;&lt;/div&gt;&lt;div&gt;- Aceitar ESSA instância&lt;/div&gt;&lt;div&gt;- Recusar ESSA instância&lt;/div&gt;&lt;div&gt;- Desativar o serviço (só mostra na primeira vez)&lt;br&gt;&lt;br&gt;&lt;/div&gt;" style="rounded=0;whiteSpace=wrap;html=1;align=center;" vertex="1" parent="1">
          <mxGeometry x="1570" y="735.9999999999999" width="180" height="180" as="geometry" />
        </mxCell>
        <mxCell id="R2EAvxU0J0-hC88VYYGd-66" style="edgeStyle=orthogonalEdgeStyle;rounded=0;orthogonalLoop=1;jettySize=auto;html=1;" edge="1" parent="1" source="R2EAvxU0J0-hC88VYYGd-65">
          <mxGeometry relative="1" as="geometry">
            <mxPoint x="2000" y="826" as="targetPoint" />
          </mxGeometry>
        </mxCell>
        <mxCell id="R2EAvxU0J0-hC88VYYGd-65" value="NA PRIMEIRA QUE ELE ACEITAR: Avisa que tem um comando (e uma info no banco) que tem todos os pagamentos recorrentes" style="rounded=0;whiteSpace=wrap;html=1;" vertex="1" parent="1">
          <mxGeometry x="1820" y="765" width="130" height="122" as="geometry" />
        </mxCell>
        <mxCell id="R2EAvxU0J0-hC88VYYGd-67" value="Como vamos configurar?&lt;br&gt;DETALHES" style="shape=hexagon;perimeter=hexagonPerimeter2;whiteSpace=wrap;html=1;fixedSize=1;" vertex="1" parent="1">
          <mxGeometry x="2000" y="786" width="120" height="80" as="geometry" />
        </mxCell>
        <mxCell id="R2EAvxU0J0-hC88VYYGd-72" style="edgeStyle=orthogonalEdgeStyle;rounded=0;orthogonalLoop=1;jettySize=auto;html=1;entryX=0;entryY=0.5;entryDx=0;entryDy=0;" edge="1" parent="1" source="R2EAvxU0J0-hC88VYYGd-68" target="R2EAvxU0J0-hC88VYYGd-73">
          <mxGeometry relative="1" as="geometry">
            <mxPoint x="1570" y="1010" as="targetPoint" />
          </mxGeometry>
        </mxCell>
        <mxCell id="R2EAvxU0J0-hC88VYYGd-68" value="Relatório de consumo: ATIVO POR DEFAULT" style="rounded=0;whiteSpace=wrap;html=1;" vertex="1" parent="1">
          <mxGeometry x="1370" y="1020" width="120" height="60" as="geometry" />
        </mxCell>
        <mxCell id="R2EAvxU0J0-hC88VYYGd-75" style="edgeStyle=orthogonalEdgeStyle;rounded=0;orthogonalLoop=1;jettySize=auto;html=1;" edge="1" parent="1" source="R2EAvxU0J0-hC88VYYGd-73">
          <mxGeometry relative="1" as="geometry">
            <mxPoint x="1800" y="1050" as="targetPoint" />
          </mxGeometry>
        </mxCell>
        <mxCell id="R2EAvxU0J0-hC88VYYGd-73" value="Por padrão, são mensais. Na mensagem do primeiro relatório, ele fala que o usuário pode alterar configs, desativar ou incluir análise de IA de identificação de aumento de preços." style="rounded=0;whiteSpace=wrap;html=1;" vertex="1" parent="1">
          <mxGeometry x="1580" y="990" width="170" height="120" as="geometry" />
        </mxCell>
        <mxCell id="R2EAvxU0J0-hC88VYYGd-76" value="&lt;div&gt;DICAS:&lt;/div&gt;Ao final de cada grande interação, o bot mandará uma dica de um banco de dicas, só que essas dicas estão em formato de &quot;árvore&quot;, ou seja, existem &quot;dicas&quot; que dependem de opções ativadas nas configs.&lt;br&gt;Exemplo: dica1 &quot;alterar uma config&quot; e dica2 &quot;ativar uma config&quot;, a dica2 claramente precede a dica1, então ele sorterará a dica2 e nunca a dica1. Caso a opção esteja ativada, ele só pode sortear a dica1." style="shape=dataStorage;whiteSpace=wrap;html=1;fixedSize=1;" vertex="1" parent="1">
          <mxGeometry x="200" y="305" width="340" height="190" as="geometry" />
        </mxCell>
        <mxCell id="R2EAvxU0J0-hC88VYYGd-77" value="PARTE SEM IA: Gráficos de gastos catalogados, com a possibilidade do usuário comparar relatórios de períodos diferentes" style="rounded=0;whiteSpace=wrap;html=1;" vertex="1" parent="1">
          <mxGeometry x="1800" y="992.5" width="160" height="115" as="geometry" />
        </mxCell>
        <mxCell id="R2EAvxU0J0-hC88VYYGd-81" style="edgeStyle=orthogonalEdgeStyle;rounded=0;orthogonalLoop=1;jettySize=auto;html=1;" edge="1" parent="1" source="R2EAvxU0J0-hC88VYYGd-78" target="R2EAvxU0J0-hC88VYYGd-83">
          <mxGeometry relative="1" as="geometry">
            <mxPoint x="2180" y="1050" as="targetPoint" />
          </mxGeometry>
        </mxCell>
        <mxCell id="R2EAvxU0J0-hC88VYYGd-84" style="edgeStyle=orthogonalEdgeStyle;rounded=0;orthogonalLoop=1;jettySize=auto;html=1;entryX=0;entryY=0.5;entryDx=0;entryDy=0;" edge="1" parent="1" source="R2EAvxU0J0-hC88VYYGd-78" target="R2EAvxU0J0-hC88VYYGd-85">
          <mxGeometry relative="1" as="geometry">
            <mxPoint x="2110" y="1190" as="targetPoint" />
          </mxGeometry>
        </mxCell>
        <mxCell id="R2EAvxU0J0-hC88VYYGd-78" value="PARTE COM IA (?): Alterações de preços de consumo: Por meio da quebra de padrões consolidados. Ele vai mandar um relatório das instâncias e perguntar se está factualmente vinculado." style="rounded=0;whiteSpace=wrap;html=1;" vertex="1" parent="1">
          <mxGeometry x="2000" y="982.5" width="160" height="135" as="geometry" />
        </mxCell>
        <mxCell id="R2EAvxU0J0-hC88VYYGd-79" style="edgeStyle=orthogonalEdgeStyle;rounded=0;orthogonalLoop=1;jettySize=auto;html=1;entryX=-0.024;entryY=0.499;entryDx=0;entryDy=0;entryPerimeter=0;" edge="1" parent="1" source="R2EAvxU0J0-hC88VYYGd-77" target="R2EAvxU0J0-hC88VYYGd-78">
          <mxGeometry relative="1" as="geometry" />
        </mxCell>
        <mxCell id="R2EAvxU0J0-hC88VYYGd-83" value="&lt;div&gt;- Pagamentos em épocas semelhantes&lt;/div&gt;&lt;div&gt;- Valores semelhantes&lt;/div&gt;&lt;div&gt;- Conta/padrão igual. Se for conta diferente, demora + para identificar o padrão.&lt;/div&gt;" style="rounded=0;whiteSpace=wrap;html=1;" vertex="1" parent="1">
          <mxGeometry x="2240" y="990" width="140" height="120" as="geometry" />
        </mxCell>
        <mxCell id="R2EAvxU0J0-hC88VYYGd-85" value="Se não estiver, ignora completamente e salva para relatorios futuros." style="rounded=0;whiteSpace=wrap;html=1;" vertex="1" parent="1">
          <mxGeometry x="2140" y="1150" width="120" height="60" as="geometry" />
        </mxCell>
        <mxCell id="R2EAvxU0J0-hC88VYYGd-88" style="edgeStyle=orthogonalEdgeStyle;rounded=0;orthogonalLoop=1;jettySize=auto;html=1;entryX=0;entryY=0.5;entryDx=0;entryDy=0;" edge="1" parent="1" source="R2EAvxU0J0-hC88VYYGd-86" target="R2EAvxU0J0-hC88VYYGd-89">
          <mxGeometry relative="1" as="geometry">
            <mxPoint x="1460" y="1490" as="targetPoint" />
            <Array as="points">
              <mxPoint x="1460" y="1490" />
            </Array>
          </mxGeometry>
        </mxCell>
        <mxCell id="R2EAvxU0J0-hC88VYYGd-93" value="NÃO ASSINOU" style="edgeLabel;html=1;align=center;verticalAlign=middle;resizable=0;points=[];" vertex="1" connectable="0" parent="R2EAvxU0J0-hC88VYYGd-88">
          <mxGeometry x="-0.7355" y="2" relative="1" as="geometry">
            <mxPoint as="offset" />
          </mxGeometry>
        </mxCell>
        <mxCell id="R2EAvxU0J0-hC88VYYGd-91" style="edgeStyle=orthogonalEdgeStyle;rounded=0;orthogonalLoop=1;jettySize=auto;html=1;entryX=0;entryY=0.5;entryDx=0;entryDy=0;" edge="1" parent="1" source="R2EAvxU0J0-hC88VYYGd-86" target="R2EAvxU0J0-hC88VYYGd-90">
          <mxGeometry relative="1" as="geometry" />
        </mxCell>
        <mxCell id="R2EAvxU0J0-hC88VYYGd-95" value="ASSINOU" style="edgeLabel;html=1;align=center;verticalAlign=middle;resizable=0;points=[];" vertex="1" connectable="0" parent="R2EAvxU0J0-hC88VYYGd-91">
          <mxGeometry x="-0.0017" y="1" relative="1" as="geometry">
            <mxPoint as="offset" />
          </mxGeometry>
        </mxCell>
        <mxCell id="R2EAvxU0J0-hC88VYYGd-86" value="NA INTEGRAÇÃO:&lt;br&gt;Verifica se o&amp;nbsp;Termo de Adesão à Plataforma de Investimentos foi assinado pelo usuario" style="rounded=0;whiteSpace=wrap;html=1;" vertex="1" parent="1">
          <mxGeometry x="1380" y="1285" width="160" height="110" as="geometry" />
        </mxCell>
        <mxCell id="R2EAvxU0J0-hC88VYYGd-89" value="Pede para assinar no app do banco e manda o link/pagina" style="rounded=0;whiteSpace=wrap;html=1;" vertex="1" parent="1">
          <mxGeometry x="1580" y="1460" width="120" height="60" as="geometry" />
        </mxCell>
        <mxCell id="R2EAvxU0J0-hC88VYYGd-108" style="edgeStyle=orthogonalEdgeStyle;rounded=0;orthogonalLoop=1;jettySize=auto;html=1;" edge="1" parent="1" source="R2EAvxU0J0-hC88VYYGd-90" target="R2EAvxU0J0-hC88VYYGd-103">
          <mxGeometry relative="1" as="geometry" />
        </mxCell>
        <mxCell id="R2EAvxU0J0-hC88VYYGd-90" value="QUIZ DE INVESTIMENTOS" style="rounded=0;whiteSpace=wrap;html=1;" vertex="1" parent="1">
          <mxGeometry x="1710" y="1310" width="120" height="60" as="geometry" />
        </mxCell>
        <mxCell id="R2EAvxU0J0-hC88VYYGd-92" style="edgeStyle=orthogonalEdgeStyle;rounded=0;orthogonalLoop=1;jettySize=auto;html=1;entryX=0.533;entryY=1.043;entryDx=0;entryDy=0;entryPerimeter=0;" edge="1" parent="1" source="R2EAvxU0J0-hC88VYYGd-89" target="R2EAvxU0J0-hC88VYYGd-90">
          <mxGeometry relative="1" as="geometry">
            <Array as="points">
              <mxPoint x="1774" y="1490" />
            </Array>
          </mxGeometry>
        </mxCell>
        <mxCell id="R2EAvxU0J0-hC88VYYGd-97" value="QUANDO O USER PERGUNTAR SOBRE INVESTIMENTOS" style="text;html=1;whiteSpace=wrap;strokeColor=none;fillColor=none;align=center;verticalAlign=middle;rounded=0;" vertex="1" parent="1">
          <mxGeometry x="1310" y="1280" width="60" height="30" as="geometry" />
        </mxCell>
        <mxCell id="R2EAvxU0J0-hC88VYYGd-109" style="edgeStyle=orthogonalEdgeStyle;rounded=0;orthogonalLoop=1;jettySize=auto;html=1;" edge="1" parent="1" source="R2EAvxU0J0-hC88VYYGd-103">
          <mxGeometry relative="1" as="geometry">
            <mxPoint x="2100" y="1340" as="targetPoint" />
            <Array as="points">
              <mxPoint x="2080" y="1340" />
              <mxPoint x="2080" y="1340" />
            </Array>
          </mxGeometry>
        </mxCell>
        <mxCell id="R2EAvxU0J0-hC88VYYGd-103" value="PERGUNTAS DO QUIZ" style="swimlane;fontStyle=0;childLayout=stackLayout;horizontal=1;startSize=30;horizontalStack=0;resizeParent=1;resizeParentMax=0;resizeLast=0;collapsible=1;marginBottom=0;whiteSpace=wrap;html=1;" vertex="1" parent="1">
          <mxGeometry x="1890" y="1280" width="140" height="120" as="geometry">
            <mxRectangle x="1920" y="1280" width="170" height="30" as="alternateBounds" />
          </mxGeometry>
        </mxCell>
        <mxCell id="R2EAvxU0J0-hC88VYYGd-104" value="Item 1" style="text;strokeColor=none;fillColor=none;align=left;verticalAlign=middle;spacingLeft=4;spacingRight=4;overflow=hidden;points=[[0,0.5],[1,0.5]];portConstraint=eastwest;rotatable=0;whiteSpace=wrap;html=1;" vertex="1" parent="R2EAvxU0J0-hC88VYYGd-103">
          <mxGeometry y="30" width="140" height="30" as="geometry" />
        </mxCell>
        <mxCell id="R2EAvxU0J0-hC88VYYGd-105" value="Item 2" style="text;strokeColor=none;fillColor=none;align=left;verticalAlign=middle;spacingLeft=4;spacingRight=4;overflow=hidden;points=[[0,0.5],[1,0.5]];portConstraint=eastwest;rotatable=0;whiteSpace=wrap;html=1;" vertex="1" parent="R2EAvxU0J0-hC88VYYGd-103">
          <mxGeometry y="60" width="140" height="30" as="geometry" />
        </mxCell>
        <mxCell id="R2EAvxU0J0-hC88VYYGd-106" value="Item 3" style="text;strokeColor=none;fillColor=none;align=left;verticalAlign=middle;spacingLeft=4;spacingRight=4;overflow=hidden;points=[[0,0.5],[1,0.5]];portConstraint=eastwest;rotatable=0;whiteSpace=wrap;html=1;" vertex="1" parent="R2EAvxU0J0-hC88VYYGd-103">
          <mxGeometry y="90" width="140" height="30" as="geometry" />
        </mxCell>
        <mxCell id="R2EAvxU0J0-hC88VYYGd-111" style="edgeStyle=orthogonalEdgeStyle;rounded=0;orthogonalLoop=1;jettySize=auto;html=1;entryX=0;entryY=0.5;entryDx=0;entryDy=0;" edge="1" parent="1" source="R2EAvxU0J0-hC88VYYGd-110" target="R2EAvxU0J0-hC88VYYGd-112">
          <mxGeometry relative="1" as="geometry">
            <mxPoint x="2280" y="1340" as="targetPoint" />
          </mxGeometry>
        </mxCell>
        <mxCell id="R2EAvxU0J0-hC88VYYGd-110" value="Análise das respostas + interações prévias (Se existirem)" style="rounded=0;whiteSpace=wrap;html=1;" vertex="1" parent="1">
          <mxGeometry x="2100" y="1310" width="120" height="60" as="geometry" />
        </mxCell>
        <mxCell id="R2EAvxU0J0-hC88VYYGd-112" value="Traçar um perfil do usuário em relação a investimentos" style="rounded=0;whiteSpace=wrap;html=1;" vertex="1" parent="1">
          <mxGeometry x="2290" y="1310" width="120" height="60" as="geometry" />
        </mxCell>
        <mxCell id="R2EAvxU0J0-hC88VYYGd-115" style="edgeStyle=orthogonalEdgeStyle;rounded=0;orthogonalLoop=1;jettySize=auto;html=1;entryX=0;entryY=0.5;entryDx=0;entryDy=0;" edge="1" parent="1" source="R2EAvxU0J0-hC88VYYGd-114" target="R2EAvxU0J0-hC88VYYGd-116">
          <mxGeometry relative="1" as="geometry">
            <mxPoint x="1550" y="1640" as="targetPoint" />
          </mxGeometry>
        </mxCell>
        <mxCell id="R2EAvxU0J0-hC88VYYGd-114" value="Sugestões de investimentos:&lt;br&gt;Como se fosse pedir pro GPT fazer só que com os dados do banco" style="rounded=0;whiteSpace=wrap;html=1;" vertex="1" parent="1">
          <mxGeometry x="1390" y="1590" width="120" height="100" as="geometry" />
        </mxCell>
        <mxCell id="R2EAvxU0J0-hC88VYYGd-117" style="edgeStyle=orthogonalEdgeStyle;rounded=0;orthogonalLoop=1;jettySize=auto;html=1;" edge="1" parent="1" source="R2EAvxU0J0-hC88VYYGd-116" target="R2EAvxU0J0-hC88VYYGd-118">
          <mxGeometry relative="1" as="geometry">
            <mxPoint x="1730" y="1640" as="targetPoint" />
          </mxGeometry>
        </mxCell>
        <mxCell id="R2EAvxU0J0-hC88VYYGd-116" value="Mudanças no mercado financeiro: Variações analisadas pela própria BTG pelos especialistas engravatados" style="rounded=0;whiteSpace=wrap;html=1;" vertex="1" parent="1">
          <mxGeometry x="1560" y="1590" width="120" height="100" as="geometry" />
        </mxCell>
        <mxCell id="R2EAvxU0J0-hC88VYYGd-118" value="&quot;Newsletter&quot; do mercado financeiro: É ativada por default, mas só é mandada caso o usuário tenha feito o quiz. Aí vão ser selecionadas as sugestões dos especialistas que mais se adequam ao perfil do usuário. Na primeira mensagem, informar que essa newsletter pode ser desativada. PERÍODO: Quando a análise do BTG julgar relevante." style="rounded=0;whiteSpace=wrap;html=1;" vertex="1" parent="1">
          <mxGeometry x="1750" y="1565" width="210" height="150" as="geometry" />
        </mxCell>
        <mxCell id="R2EAvxU0J0-hC88VYYGd-124" style="edgeStyle=orthogonalEdgeStyle;rounded=0;orthogonalLoop=1;jettySize=auto;html=1;" edge="1" parent="1" source="R2EAvxU0J0-hC88VYYGd-121" target="R2EAvxU0J0-hC88VYYGd-125">
          <mxGeometry relative="1" as="geometry">
            <mxPoint x="1560" y="1780" as="targetPoint" />
          </mxGeometry>
        </mxCell>
        <mxCell id="R2EAvxU0J0-hC88VYYGd-121" value="Relatório financeiro: Compliado de relatórios estatísticos sobre os rendimentos" style="rounded=0;whiteSpace=wrap;html=1;" vertex="1" parent="1">
          <mxGeometry x="1390" y="1750" width="120" height="60" as="geometry" />
        </mxCell>
        <mxCell id="R2EAvxU0J0-hC88VYYGd-125" value="Sugestões de investimentos no relatório: com base nas análises dos engravatados da BTG" style="rounded=0;whiteSpace=wrap;html=1;" vertex="1" parent="1">
          <mxGeometry x="1580" y="1740" width="160" height="80" as="geometry" />
        </mxCell>
        <mxCell id="R2EAvxU0J0-hC88VYYGd-126" value="Simulações de renda fixa: apenas implementar no bot" style="rounded=0;whiteSpace=wrap;html=1;" vertex="1" parent="1">
          <mxGeometry x="1390" y="1870" width="120" height="60" as="geometry" />
        </mxCell>
        <mxCell id="R2EAvxU0J0-hC88VYYGd-133" style="edgeStyle=orthogonalEdgeStyle;rounded=0;orthogonalLoop=1;jettySize=auto;html=1;" edge="1" parent="1" source="R2EAvxU0J0-hC88VYYGd-128" target="R2EAvxU0J0-hC88VYYGd-130">
          <mxGeometry relative="1" as="geometry">
            <Array as="points">
              <mxPoint x="1410" y="1990" />
            </Array>
          </mxGeometry>
        </mxCell>
        <mxCell id="R2EAvxU0J0-hC88VYYGd-134" style="edgeStyle=orthogonalEdgeStyle;rounded=0;orthogonalLoop=1;jettySize=auto;html=1;" edge="1" parent="1" source="R2EAvxU0J0-hC88VYYGd-128" target="R2EAvxU0J0-hC88VYYGd-131">
          <mxGeometry relative="1" as="geometry" />
        </mxCell>
        <mxCell id="R2EAvxU0J0-hC88VYYGd-136" style="edgeStyle=orthogonalEdgeStyle;rounded=0;orthogonalLoop=1;jettySize=auto;html=1;entryX=0;entryY=0.5;entryDx=0;entryDy=0;" edge="1" parent="1" source="R2EAvxU0J0-hC88VYYGd-128" target="R2EAvxU0J0-hC88VYYGd-132">
          <mxGeometry relative="1" as="geometry">
            <mxPoint x="1470" y="2130" as="targetPoint" />
            <Array as="points">
              <mxPoint x="1410" y="2150" />
            </Array>
          </mxGeometry>
        </mxCell>
        <mxCell id="R2EAvxU0J0-hC88VYYGd-128" value="Usuário informa que quer estabelecer metas" style="rhombus;whiteSpace=wrap;html=1;" vertex="1" parent="1">
          <mxGeometry x="1370" y="2030" width="80" height="80" as="geometry" />
        </mxCell>
        <mxCell id="R2EAvxU0J0-hC88VYYGd-139" style="edgeStyle=orthogonalEdgeStyle;rounded=0;orthogonalLoop=1;jettySize=auto;html=1;" edge="1" parent="1" source="R2EAvxU0J0-hC88VYYGd-130" target="R2EAvxU0J0-hC88VYYGd-138">
          <mxGeometry relative="1" as="geometry" />
        </mxCell>
        <mxCell id="R2EAvxU0J0-hC88VYYGd-130" value="Obter dinheiro" style="rounded=0;whiteSpace=wrap;html=1;" vertex="1" parent="1">
          <mxGeometry x="1490" y="1960" width="120" height="60" as="geometry" />
        </mxCell>
        <mxCell id="R2EAvxU0J0-hC88VYYGd-141" style="edgeStyle=orthogonalEdgeStyle;rounded=0;orthogonalLoop=1;jettySize=auto;html=1;" edge="1" parent="1" source="R2EAvxU0J0-hC88VYYGd-131" target="R2EAvxU0J0-hC88VYYGd-140">
          <mxGeometry relative="1" as="geometry" />
        </mxCell>
        <mxCell id="R2EAvxU0J0-hC88VYYGd-131" value="Comprar alguma coisa" style="rounded=0;whiteSpace=wrap;html=1;" vertex="1" parent="1">
          <mxGeometry x="1490" y="2040" width="120" height="60" as="geometry" />
        </mxCell>
        <mxCell id="R2EAvxU0J0-hC88VYYGd-142" style="edgeStyle=orthogonalEdgeStyle;rounded=0;orthogonalLoop=1;jettySize=auto;html=1;" edge="1" parent="1" source="R2EAvxU0J0-hC88VYYGd-132" target="R2EAvxU0J0-hC88VYYGd-143">
          <mxGeometry relative="1" as="geometry">
            <mxPoint x="1690" y="2150" as="targetPoint" />
          </mxGeometry>
        </mxCell>
        <mxCell id="R2EAvxU0J0-hC88VYYGd-132" value="Viajar" style="rounded=0;whiteSpace=wrap;html=1;" vertex="1" parent="1">
          <mxGeometry x="1490" y="2120" width="120" height="60" as="geometry" />
        </mxCell>
        <mxCell id="R2EAvxU0J0-hC88VYYGd-145" style="edgeStyle=orthogonalEdgeStyle;rounded=0;orthogonalLoop=1;jettySize=auto;html=1;" edge="1" parent="1" source="R2EAvxU0J0-hC88VYYGd-138" target="R2EAvxU0J0-hC88VYYGd-144">
          <mxGeometry relative="1" as="geometry" />
        </mxCell>
        <mxCell id="R2EAvxU0J0-hC88VYYGd-138" value="Informa quanto dinheiro ele quer obter em quanto tempo." style="rounded=0;whiteSpace=wrap;html=1;" vertex="1" parent="1">
          <mxGeometry x="1690" y="1960" width="120" height="60" as="geometry" />
        </mxCell>
        <mxCell id="R2EAvxU0J0-hC88VYYGd-146" style="edgeStyle=orthogonalEdgeStyle;rounded=0;orthogonalLoop=1;jettySize=auto;html=1;" edge="1" parent="1" source="R2EAvxU0J0-hC88VYYGd-140" target="R2EAvxU0J0-hC88VYYGd-144">
          <mxGeometry relative="1" as="geometry" />
        </mxCell>
        <mxCell id="R2EAvxU0J0-hC88VYYGd-140" value="Informa o objeto a ser comprado. Aí vai ser feita uma conversa sobre budget, variações do objeto (marcas), prazo." style="rounded=0;whiteSpace=wrap;html=1;" vertex="1" parent="1">
          <mxGeometry x="1685" y="2032.5" width="225" height="75" as="geometry" />
        </mxCell>
        <mxCell id="R2EAvxU0J0-hC88VYYGd-147" style="edgeStyle=orthogonalEdgeStyle;rounded=0;orthogonalLoop=1;jettySize=auto;html=1;" edge="1" parent="1" source="R2EAvxU0J0-hC88VYYGd-143" target="R2EAvxU0J0-hC88VYYGd-144">
          <mxGeometry relative="1" as="geometry" />
        </mxCell>
        <mxCell id="R2EAvxU0J0-hC88VYYGd-143" value="Informa o destino, o budget, tempo estimado, prazo, e retorna um mini-roteiro sobre o que voce precisa." style="rounded=0;whiteSpace=wrap;html=1;" vertex="1" parent="1">
          <mxGeometry x="1685" y="2140" width="145" height="100" as="geometry" />
        </mxCell>
        <mxCell id="R2EAvxU0J0-hC88VYYGd-149" style="edgeStyle=orthogonalEdgeStyle;rounded=0;orthogonalLoop=1;jettySize=auto;html=1;" edge="1" parent="1" source="R2EAvxU0J0-hC88VYYGd-144" target="R2EAvxU0J0-hC88VYYGd-148">
          <mxGeometry relative="1" as="geometry" />
        </mxCell>
        <mxCell id="R2EAvxU0J0-hC88VYYGd-144" value="DEFINIDO:&lt;br&gt;Dinheiro&lt;br&gt;Prazo&lt;br&gt;Urgência" style="rounded=0;whiteSpace=wrap;html=1;" vertex="1" parent="1">
          <mxGeometry x="1960" y="2040" width="120" height="60" as="geometry" />
        </mxCell>
        <mxCell id="R2EAvxU0J0-hC88VYYGd-151" style="edgeStyle=orthogonalEdgeStyle;rounded=0;orthogonalLoop=1;jettySize=auto;html=1;" edge="1" parent="1" source="R2EAvxU0J0-hC88VYYGd-148" target="R2EAvxU0J0-hC88VYYGd-150">
          <mxGeometry relative="1" as="geometry" />
        </mxCell>
        <mxCell id="R2EAvxU0J0-hC88VYYGd-161" style="edgeStyle=orthogonalEdgeStyle;rounded=0;orthogonalLoop=1;jettySize=auto;html=1;" edge="1" parent="1" source="R2EAvxU0J0-hC88VYYGd-148" target="R2EAvxU0J0-hC88VYYGd-162">
          <mxGeometry relative="1" as="geometry">
            <mxPoint x="2200" y="2210" as="targetPoint" />
          </mxGeometry>
        </mxCell>
        <mxCell id="R2EAvxU0J0-hC88VYYGd-148" value="ANÁLISE:&lt;br&gt;Saldo, balancetes, relatórios, padrões de consumo e se quer alinhar investimentos" style="rounded=0;whiteSpace=wrap;html=1;" vertex="1" parent="1">
          <mxGeometry x="2140" y="2015" width="120" height="110" as="geometry" />
        </mxCell>
        <mxCell id="R2EAvxU0J0-hC88VYYGd-153" style="edgeStyle=orthogonalEdgeStyle;rounded=0;orthogonalLoop=1;jettySize=auto;html=1;" edge="1" parent="1" source="R2EAvxU0J0-hC88VYYGd-150" target="R2EAvxU0J0-hC88VYYGd-152">
          <mxGeometry relative="1" as="geometry" />
        </mxCell>
        <mxCell id="R2EAvxU0J0-hC88VYYGd-150" value="Divisão de checkpoints em várias variáveis (dinheiro para A, B, C, etc.) com prazos" style="rounded=0;whiteSpace=wrap;html=1;" vertex="1" parent="1">
          <mxGeometry x="2290" y="2020" width="140" height="100" as="geometry" />
        </mxCell>
        <mxCell id="R2EAvxU0J0-hC88VYYGd-155" style="edgeStyle=orthogonalEdgeStyle;rounded=0;orthogonalLoop=1;jettySize=auto;html=1;" edge="1" parent="1" source="R2EAvxU0J0-hC88VYYGd-152" target="R2EAvxU0J0-hC88VYYGd-154">
          <mxGeometry relative="1" as="geometry" />
        </mxCell>
        <mxCell id="R2EAvxU0J0-hC88VYYGd-160" style="edgeStyle=orthogonalEdgeStyle;rounded=0;orthogonalLoop=1;jettySize=auto;html=1;" edge="1" parent="1" source="R2EAvxU0J0-hC88VYYGd-152" target="R2EAvxU0J0-hC88VYYGd-159">
          <mxGeometry relative="1" as="geometry" />
        </mxCell>
        <mxCell id="R2EAvxU0J0-hC88VYYGd-152" value="A cada prazo ou cumprimento de checkpoints, entra a parte de reajuste da viabilidade - reajusta metas OU mostra que realmente nao da mais" style="rounded=0;whiteSpace=wrap;html=1;" vertex="1" parent="1">
          <mxGeometry x="2480" y="2015" width="160" height="110" as="geometry" />
        </mxCell>
        <mxCell id="R2EAvxU0J0-hC88VYYGd-154" value="Progresso das metas:&lt;div&gt;Fornecer o andamento&lt;/div&gt;" style="rounded=0;whiteSpace=wrap;html=1;" vertex="1" parent="1">
          <mxGeometry x="2500" y="2180" width="120" height="60" as="geometry" />
        </mxCell>
        <mxCell id="R2EAvxU0J0-hC88VYYGd-159" value="Sugere investimentos nessa meta com base nas sugestões dos engravatados." style="rounded=0;whiteSpace=wrap;html=1;" vertex="1" parent="1">
          <mxGeometry x="2690" y="2030" width="120" height="80" as="geometry" />
        </mxCell>
        <mxCell id="R2EAvxU0J0-hC88VYYGd-162" value="Se ele não fez o quiz, fala que precisa fazer para ativar essa opção dos investimentos. Se necessário, o usuário SAI do cadastro da meta, faz o quiz e volta recadastrando a partir da conversa já salva" style="rounded=0;whiteSpace=wrap;html=1;" vertex="1" parent="1">
          <mxGeometry x="2095" y="2165" width="210" height="90" as="geometry" />
        </mxCell>
      </root>
    </mxGraphModel>
  </diagram>
</mxfile>
